<?xml version="1.0" encoding="UTF-8"?>
<svg xmlns="http://www.w3.org/2000/svg" width="256" height="256" viewBox="0 0 256 256">
<rect x="0" y="0" width="256" height="256" rx="40" fill="#fff"></rect>
<rect x="6" y="6" width="244" height="244" rx="36" fill="none" stroke="#f0f0f3" stroke-width="1.5"></rect>
<g transform="translate(6.84 178.66)" fill="#D90E1A"><path d="M149.73 22.52L149.73 22.52Q141.21 22.52 133.23 17.22Q125.26 11.93 119.66-0.37L119.66-0.37Q117.22-5.84 115.70-11.44Q114.18-17.04 113.45-21.91Q112.72-26.78 112.72-29.95L112.72-29.95Q112.72-33.84 113.57-34.33L113.57-34.33Q115.89-34.08 121.30-36.28Q126.72-38.47 134.21-42.73Q141.69-46.99 150.40-53.01Q159.10-59.04 167.92-66.59Q176.75-74.13 184.91-82.90Q193.06-91.66 199.27-101.28L199.27-101.28Q200.12-102.62 200.61-103.23Q201.10-103.83 201.58-103.83L201.58-103.83Q202.19-103.83 202.68-103.29Q203.16-102.74 203.16-102.13L203.16-102.13Q203.16-101.16 202.31-99.82L202.31-99.82Q196.47-90.08 188.50-80.77Q180.52-71.45 171.52-63.30Q162.51-55.14 153.38-48.57Q144.25-42.00 135.97-37.61Q127.69-33.23 121.36-31.65L121.36-31.65Q121.00-31.89 121.00-30.43L121.00-30.43Q121.00-28.36 121.85-23.80Q122.70-19.23 124.47-13.45Q126.23-7.67 128.79-1.70L128.79-1.70Q133.41 9.13 139.68 13.21Q145.95 17.29 152.65 17.29L152.65 17.29Q156.91 17.29 161.41 15.58Q165.92 13.88 169.69 10.89Q173.46 7.91 175.53 3.90L175.53 3.90Q176.26 2.68 176.63 2.68L176.63 2.68Q177.48 2.68 177.48 3.65L177.48 3.65Q177.48 4.02 177.30 4.44Q177.12 4.87 176.51 6.21L176.51 6.21Q174.80 9.62 170.85 13.45Q166.89 17.29 161.47 19.90Q156.06 22.52 149.73 22.52ZM46.38 20.94L46.38 20.94Q38.10 20.94 30.37 18.69Q22.64 16.43 16.49 12.05Q10.35 7.67 6.76 1.34Q3.16-4.99 3.16-13.02L3.16-13.02Q3.16-18.87 4.93-23.43Q6.70-28.00 9.31-31.04Q11.93-34.08 14.55-35.67Q17.16-37.25 18.87-37.25L18.87-37.25Q20.09-37.25 20.09-36.52L20.09-36.52Q20.09-35.91 19.48-35.54L19.48-35.54Q16.68-34.08 13.76-31.28Q10.83-28.48 8.89-23.98Q6.94-19.48 6.94-12.78L6.94-12.78Q6.94-5.48 10.04-0.30Q13.15 4.87 18.20 8.16Q23.25 11.44 29.09 12.96Q34.94 14.49 40.29 14.49L40.29 14.49Q52.22 14.49 62.57 9.86Q72.92 5.23 81.50-2.50Q90.08-10.23 96.65-19.72Q103.23-29.21 107.49-38.95L107.49-38.95Q109.07-42.48 111.26-47.41Q113.45-52.34 116.01-57.94Q118.56-63.54 121.00-68.90Q123.43-74.25 125.44-78.58Q127.45-82.90 128.67-85.21L128.67-85.21Q120.51-84.24 111.08-83.44Q101.64-82.65 93.12-80.22L93.12-80.22Q83.63-77.54 77.60-72.43Q71.58-67.32 68.72-61.35Q65.86-55.39 65.86-50.15L65.86-50.15Q65.86-43.82 69.02-39.74Q72.19-35.67 78.15-35.67L78.15-35.67Q82.65-35.67 86.18-38.28Q89.71-40.90 91.78-45.10Q93.85-49.30 93.85-54.05L93.85-54.05Q93.85-56.00 93.49-57.33Q93.12-58.67 93.12-59.40L93.12-59.40Q93.12-60.26 93.73-60.26L93.73-60.26Q94.58-60.26 95.31-58.79L95.31-58.79Q96.53-56.00 96.53-53.32L96.53-53.32Q96.53-47.60 93.73-43.03Q90.93-38.47 86.55-35.79Q82.17-33.11 77.30-33.11L77.30-33.11Q71.58-33.11 67.38-35.85Q63.18-38.59 60.86-43.09Q58.55-47.60 58.55-52.83L58.55-52.83Q58.55-58.79 61.84-64.94Q65.12-71.09 72.43-76.14Q79.73-81.19 91.66-83.87L91.66-83.87Q101.64-86.06 111.99-86.73Q122.34-87.40 130.25-88.13L130.25-88.13Q134.51-94.70 137.19-96.47Q139.87-98.23 142.06-98.23L142.06-98.23Q144.25-98.23 145.53-97.02Q146.80-95.80 146.80-94.10L146.80-94.10Q146.80-91.66 143.46-88.92Q140.11-86.18 132.20-85.33L132.20-85.33Q128.30-78.15 125.02-69.32Q121.73-60.50 118.44-50.88Q115.16-41.27 111.26-31.77L111.26-31.77Q104.69-15.95 95.68-4.08Q86.67 7.79 74.50 14.36Q62.33 20.94 46.38 20.94ZM134.51-88.37L134.51-88.37Q137.55-88.62 140.35-90.14Q143.15-91.66 143.15-93.49L143.15-93.49Q143.15-94.70 141.94-94.70L141.94-94.70Q140.84-94.70 138.89-93.30Q136.94-91.91 134.51-88.37Z"></path></g>
<line x1="180" y1="218" x2="240" y2="218" stroke="#D90E1A" stroke-width="3"></line>
<g transform="translate(198.75 238.64)" fill="#D90E1A"><path d="M2.64 0.70L2.64 0.70Q1.29 0.70-0.18 0.41Q-1.64 0.12-2.75-0.70L-2.75-0.70L-2.75-1.05L-2.40-1.41L-2.05-1.52Q-1.23-1.11-0.09-0.88Q1.05-0.64 1.99-0.64L1.99-0.64Q4.28-0.64 6.74-1.87Q9.20-3.10 11.31-5.13Q13.41-7.15 14.73-9.55Q16.05-11.95 16.05-14.29L16.05-14.29Q16.05-16.17 14.85-17.05Q13.65-17.92 12.01-17.92L12.01-17.92Q11.01-17.92 9.93-17.66Q8.85-17.40 7.85-17.10L7.85-17.10L7.44-17.28L7.38-17.81L7.62-18.16Q9.20-18.80 11.48-19.92Q13.77-21.03 15.99-22.55Q18.22-24.08 19.68-25.95Q21.15-27.82 21.15-29.99L21.15-29.99Q21.15-32.10 18.92-32.10L18.92-32.10Q17.40-32.10 15.85-31.22Q14.29-30.34 12.97-29.14Q11.66-27.94 10.72-26.83L10.72-26.83L10.43-26.83L10.02-27.24L10.02-27.53Q11.36-29.17 13.00-30.64Q14.64-32.10 16.61-33.04Q18.57-33.97 20.79-33.97L20.79-33.97Q22.55-33.97 23.90-33.15Q25.25-32.33 25.25-30.40L25.25-30.40Q25.25-28.18 23.87-26.39Q22.49-24.60 20.41-23.23Q18.33-21.85 16.11-20.85Q13.88-19.86 12.13-19.21L12.13-19.21Q13.88-19.21 15.76-18.74Q17.63-18.28 18.92-17.10Q20.21-15.93 20.21-13.82L20.21-13.82Q20.21-11.13 18.54-8.55Q16.87-5.97 14.18-3.87Q11.48-1.76 8.44-0.53Q5.39 0.70 2.64 0.70Z"></path></g>
</svg>